<svg width="1029" height="229" viewBox="0 0 1029 229" xmlns="http://www.w3.org/2000/svg"><g fill="none"><g><path d="M906.072 137.02l-8.893-.425s-2.401-14.257-1.415-18.773l42.209.425s.99 16.091.707 18.492l-7.482.284 7.482 17.221 16.941-29.927 12.845.425 18.777 29.784 6.775-17.081-8.045-.422.139-18.776c.707-.706 41.929-.284 41.788-.284 0 0 1.128 9.741.985 18.776l-8.468.564s-13.979 39.951-22.589 52.798c0 0-11.435.987-17.363-.423l-19.2-30.775-17.082 31.198s-12.845.987-18.772-.423c.001 0-17.223-41.082-19.339-52.658zM860.459 116.834c20.045 0 34.586 13.411 34.586 37.128 0 19.482-10.446 38.115-34.446 38.115-21.458 0-36.704-11.153-36.704-38.397 0-27.107 16.516-36.846 36.564-36.846zm.562 51.103c5.507 0 9.741-4.235 9.741-13.27 0-7.201-2.821-14.541-9.741-14.541-8.61 0-11.435 7.059-11.435 14.541.001 8.469 6.213 13.27 11.435 13.27zM779.691 91c10.73 0 16.659 5.928 16.659 5.928l1.552-8.33c0 .283 16.095.566 22.165 4.376.988.707-.705 35.153-.705 35.153l-22.729 2.821s-2.824-14.539-15.529-14.539c-7.343 0-13.552 7.765-13.552 23.434 0 16.658 10.022 22.446 17.078 22.446 9.037 0 15.812-7.622 17.224-9.599 6.354 6.634 18.494 17.503 18.494 17.503s-8.895 20.895-35.718 20.895c-22.021 0-46.019-17.081-46.019-51.246.001-35.714 21.317-48.842 41.08-48.842z" fill="#9E5EDB"/><path d="M668.143 180.642s-19.765-32.469-21.881-44.047l-7.765-.422s-2.397-13.835-1.412-18.353l42.211-.143s.986 16.234.705 18.636l-7.905.281 10.729 19.905 10.165-19.481-7.059-.424-.284-18.352c.705-.707 40.658.563 40.516.563 0 0 1.129 9.033.99 18.069l-7.767.424s-38.255 75.388-46.868 88.233c0 0-19.765-3.954-24.421-11.999-.847-.14 20.611-32.749 20.046-32.89zM472.734 201.535l-.142-58.867h-10.446c-.143-9.034-.986-20.894-.986-20.894-.143 0 31.198-5.083 31.904-4.377.281.85 2.964 6.212 2.964 6.212s4.095-6.212 18.493-6.212c12.987 0 32.327 8.472 32.327 37.552 0 29.364-17.081 36.14-31.48 36.14-12 0-16.376-4.518-16.376-4.518v13.977s13.693 1.553 14.259 1.976c.848.706.424 19.058.562 19.058.285 0-51.241.283-50.96 0l-.846-19.198 10.727-.849zm38.824-32.327c6.774 0 9.881-5.366 9.881-14.823 0-9.317-3.812-14.259-9.315-14.259-6.07 0-9.884 5.222-9.884 14.117-.001 8.47 3.811 14.965 9.318 14.965zM562.533 201.535l-.142-58.867h-10.447c-.142-9.034-.986-20.894-.986-20.894-.142 0 31.197-5.083 31.901-4.377.284.85 2.967 6.212 2.967 6.212s4.092-6.212 18.494-6.212c12.986 0 32.327 8.472 32.327 37.552 0 29.364-17.084 36.14-31.483 36.14-11.998 0-16.377-4.518-16.377-4.518v13.977s13.697 1.553 14.26 1.976c.848.706.424 19.058.568 19.058.279 0-51.247.283-50.966 0l-.847-19.198 10.731-.849zm38.821-32.327c6.777 0 9.883-5.366 9.883-14.823 0-9.317-3.811-14.259-9.317-14.259-6.07 0-9.882 5.222-9.882 14.117-.001 8.47 3.811 14.965 9.316 14.965zM371.925 152.832c0-26.823 17.222-34.728 31.621-34.728 11.998 0 20.892 7.059 20.892 7.059v-7.059s29.93-.988 29.93-.282c0 .705.989 18.773.847 18.773-.281 0-10.165 2.118-10.447 2.402-.422.283.282 29.786.282 29.786.145 0 11.72-.141 11.861.847.282.987.282 19.763-.284 19.763-.424 0-32.043-.562-32.043-.985 0-.423-1.413-7.202-1.413-7.202s-5.646 9.319-20.048 9.319c-12.987 0-31.198-8.613-31.198-37.693zm47.151.705c0-7.48-4.658-13.694-10.446-13.694-7.059 0-11.717 4.941-11.717 13.413 0 8.188 5.505 13.41 11.151 13.41 6.353 0 11.012-5.222 11.012-13.129zM272.242 171.042c.565-.562 10.165-1.411 10.165-1.411l-1.978-58.304s-8.187.283-8.893-.423c-.706-.705.564-20.611.564-20.611l40.798.707.989 20.045-9.883.988.708 15.528 27.246 1.271-.282-17.363s-8.189-.849-8.33-.849c-.141 0-1.411-19.34-1.411-19.34l46.445.424s-.423 19.34-.705 19.34-10.446 1.695-10.446 1.695l1.834 55.761 9.74 1.13v20.188s-43.762.563-43.762.282c0-.282-.424-20.61-.424-20.61l9.883-.989-.425-18.634-28.657-.847s-.283 20.61.425 20.61c.705 0 9.457-.564 9.457.422s1.978 18.635 1.271 18.917c-.705.283-44.045-.706-44.045-.706s-.849-16.656-.284-17.221z" fill="#010101"/></g><g><path d="M60.104 88.299c-1.004 2.969-17.978 4.097-20.1 4.29-10.235.939-26.512 2.479-34.381-5.751-7.267-7.598-4.43-20.662 2.852-27.281 7.629-6.931 17.647-6.589 26.568-4.948 5.184.95 10.326 2.454 15.258 4.326 1.557.59 17.39 6.898 16.856 8.476.001.001-7.053 20.879-7.053 20.888" stroke="#5E3883" stroke-width="1.35" fill="#9E5EDB"/><path d="M36.49 84.062c-5.916.636-15.322 1.674-19.806-3.133-4.139-4.433-2.411-12.185 1.84-16.156 4.452-4.162 8.893-3.838 14.032-2.938 2.983.521 9.2 2.211 11.824 5.224 2.625 3.014 10.237 14.291-7.89 17.003z" fill="#F5EAD7"/><path d="M192.822 109.922c.077 2.814 15.938 8.593 17.905 9.359 9.49 3.705 24.563 9.635 34.513 4.853 9.182-4.412 10.349-16.352 5.36-24.058-5.225-8.071-14.886-10.622-23.885-11.755-5.227-.66-10.578-.839-15.84-.643-1.66.062-18.637.944-18.597 2.441l.544 19.803" stroke="#5E3883" stroke-width="1.35" fill="#9E5EDB"/><path d="M216.608 113.011c5.457 2.22 14.123 5.774 19.826 2.951 5.264-2.604 5.91-9.7 3.032-14.292-3.016-4.81-7.348-5.793-12.518-6.485-3.002-.402-9.436-.727-12.832 1.097-3.396 1.824-14.002 9.274 2.492 16.729z" fill="#F5EAD7"/><path d="M94.161 50.937c.318-.229-10.501-17.281-5.042-30.587 2.489-5.538 10.977-10.146 10.331-15.159-1.506-6.648-15.15-2.799-18.94-1.291-20.605 8.283-32.813 41.188-18.677 70.46-.002 0 32.319-23.421 32.328-23.423" stroke="#7B7C7C" stroke-width="1.35" fill="#CDCFD0"/><path d="M87.107 47.577c-10.043-28.821 5.426-38.984 5.426-38.984-21.512 7.285-11.751 41.287-11.751 41.287l6.325-2.303z" fill="#fff"/><path d="M193.658 40.901c.418-6.057-4.893-14.126-1.958-18.241 4.464-5.151 14.679 4.678 17.309 7.798 14.262 17.023 9.503 51.797-16.767 70.938 0-.001-17.452-35.896-17.457-35.906-.173-.352 17.412-10.283 18.873-24.589z" stroke="#7B7C7C" stroke-width="1.35" fill="#CDCFD0"/><path d="M182.587 65.858c22.454-20.677 13.606-36.935 13.608-36.935 15.528 16.571-9.117 41.947-9.117 41.947l-4.491-5.012z" fill="#fff"/><path d="M49.506 113.217s-7.223-75.49 60.636-69.556l55.012 10.539s46.009 12.442 32.224 79.694c0 0-68.605 39.636-147.664-21.303" stroke="#5E3883" stroke-width="1.35" fill="#9E5EDB"/><path d="M71.229 108.622s.144-38.353 20.818-34.982c27.882 4.542 11.764 50.229 11.764 50.229l-32.582-15.247z" fill="#fff"/><path d="M91.57 121.669c-7.771.121-14.211-8.931-14.386-20.221-.176-11.285 5.981-20.533 13.754-20.65 7.77-.124 14.212 8.929 14.386 20.219.175 11.283-5.983 20.531-13.754 20.652z" fill="#231F20"/><path d="M96.148 95.034c0 2.375-1.925 4.299-4.299 4.299-2.375 0-4.301-1.926-4.301-4.299 0-2.375 1.926-4.299 4.301-4.299 2.374 0 4.299 1.924 4.299 4.299" fill="#fff"/><path d="M176.547 124.31s13.414-32.646-6.97-37.477c-29.66-7.028-30.914 43.724-30.914 43.724l37.884-6.247z" fill="#fff"/><path d="M152.739 131.659c7.226 2.859 16.45-3.332 20.604-13.831 4.153-10.495 1.661-21.321-5.568-24.18-7.225-2.86-16.45 3.332-20.603 13.83-4.152 10.493-1.659 21.321 5.567 24.181z" fill="#231F20"/><path d="M166.539 105.807c.075 2.377-1.789 4.358-4.164 4.433-2.373.077-4.357-1.789-4.432-4.16-.076-2.374 1.789-4.358 4.163-4.433 2.372-.074 4.357 1.786 4.433 4.16" fill="#fff"/><path d="M102.813 226.053c123.681 15.917 123.091-88.201 87.014-101.12-20.643-7.392-40.08 9.551-69.665 3.717-29.066-5.733-39.921-26.692-66.519-21.63-43.655 8.307-43.6 107.096 49.17 119.033z" stroke="#938C81" stroke-width="1.35" fill="#F5EAD7"/><path d="M161.803 157.268c-6.002 2.856-11.7 1.552-12.725-2.917-1.027-4.468 3.01-10.405 9.011-13.264 6.001-2.855 11.699-1.553 12.727 2.915 1.024 4.47-3.009 10.409-9.013 13.266" fill="#9E5EDB"/><path d="M176.936 140.375s3.739 9.679-18.028 17.917c0 .001-4.6-1.17-8.947-6.013-1.264-8.52 19.129-23.214 26.976-11.903z" fill="#9E5EDB" opacity=".4"/><path d="M91.181 136.236c3.243 5.802 2.309 11.576-2.083 12.886-4.391 1.317-10.58-2.323-13.821-8.126-3.242-5.805-2.312-11.573 2.079-12.891 4.393-1.313 10.581 2.326 13.825 8.131" fill="#9E5EDB"/><path d="M76.947 143.709c-5.38-5.565-11.751-12.733-7.365-18.373 0 0 12.051-10.733 23.191 15.914" fill="#9E5EDB" opacity=".4"/><path d="M187.137 182.313c-7.938 7.935-18.339 10.401-23.229 5.51-4.89-4.895-2.418-15.292 5.521-23.228 7.937-7.936 18.338-10.403 23.229-5.513 4.889 4.896 2.418 15.293-5.521 23.231" fill="#9E5EDB" opacity=".4"/><path d="M130.205 56.18s-18.322 2.186-19.595 16.026c0 0-8.415-14.781 7.729-18.776 0 0-11.947-5.592-21.592.329 0 0 6.276-11.998 22.635-8.893-1.954-8.039-12.252-11.309-12.252-11.309s11.707-2.839 22.284 8.34c0 0 .172-4.285 4.358-7.5 0 0 3.999 3.297 3.999 8.733 0 0 13.191-7.697 24.289 3.458 0 0-12.586-3.574-16.396 1.047 0 0 18.878 1.332 22.404 15.283 0 0-16.773-11.758-24.706-8.172 12.486 4.56 9.296 17.461 9.296 17.461s-5.222-14.009-22.453-16.027z" stroke="#5E3883" stroke-width="1.35" fill="#9E5EDB"/><path d="M74.251 179.775l2.442-1.462s8.914 20.116 32.856 23.482c25.659 3.606 44.264-11.111 44.264-11.111l1.837 2.02s-19.37 16.276-46.331 11.965c-26.959-4.308-35.068-24.894-35.068-24.894zM158.243 195.266l-.182-.029c-5.251-1.176-7.014-6.095-7.084-6.304-.251-.717.13-1.48.853-1.711.716-.229 1.499.164 1.751.873.059.171 1.359 3.668 5.035 4.491.744.165 1.228.896 1.072 1.628-.142.673-.77 1.113-1.445 1.052" fill="#231F20"/><path d="M46.638 163.612c6.545 9.121 17.294 13.043 22.917 9.008 5.62-4.032 5.614-16.166-.928-25.283-6.543-9.122-17.149-11.775-22.769-7.744-5.622 4.033-5.763 14.897.78 24.019" fill="#9E5EDB" opacity=".4"/><path d="M71.352 181.656l.184.016c5.356.044 7.974-4.366 8.083-4.553.373-.647.142-1.479-.524-1.871-.659-.384-1.499-.184-1.868.455-.096.153-2.002 3.275-5.752 3.245-.759-.009-1.361.601-1.343 1.351.014.69.55 1.265 1.22 1.357" fill="#231F20"/></g></g></svg>